<?xml version="1.0" standalone="no"?><svg xmlns="http://www.w3.org/2000/svg" viewBox="0 0 1440 320"><path fill="#eeeeee" fill-opacity="1" d="M0,160L30,170.7C60,181,120,203,180,218.7C240,235,300,245,360,229.3C420,213,480,171,540,160C600,149,660,171,720,165.3C780,160,840,128,900,106.7C960,85,1020,75,1080,80C1140,85,1200,107,1260,133.3C1320,160,1380,192,1410,208L1440,224L1440,320L1410,320C1380,320,1320,320,1260,320C1200,320,1140,320,1080,320C1020,320,960,320,900,320C840,320,780,320,720,320C660,320,600,320,540,320C480,320,420,320,360,320C300,320,240,320,180,320C120,320,60,320,30,320L0,320Z"></path></svg>